# xmcd
#
# Track frame offsets:
#	150
#	10420
#	20497
#	31525
#	44951
#	55384
#	64994
#	75599
#	87456
#	99497
#	109896
#	120123
#	131722
#	144011
#	156593
#	166228
#	179492
#	189838
#	199153
#	209960
#	220706
#	231119
#	242285
#	251146
#	259760
#	271588
#	280555
#	291940
#	301324
#	316622
#	326886
#	338685
#	349662
#	358968
#	372493
#
# Disc length: 5129 seconds
# Revision: 2
# Processed by: cddbd v1.5.2PL0 Copyright (c) Steve Scherf et al.
# Submitted via: dBpowerAMP V12.0
#
DISCID=10140723
DTITLE=Various Artist - Open Up Your Heart: The Buck Owens and The Buckaroos Recordings 1965-1968, CD03 - CD03
DYEAR=2010
DGENRE=Country
TTITLE0=Buck Owens And His Buckaroos - Where Does The Good Times Go (Recorded 1966 - Released 2010  BCD 16855-3)
TTITLE1=Buck Owens And His Buckaroos - Goodbye, Good Luck, God Bless You (Recorded 1966 - Released 1967  ST 2640)
TTITLE2=Buck Owens And His Buckaroos - Cadillac Lane (Recorded 1966 - Released 1967  ST 2640)
TTITLE3=Buck Owens And His Buckaroos - House Of Memories (Recorded 1966 - Released 1967  ST 2760)
TTITLE4=Buck Owens And His Buckaroos - Think Of Me (Recorded 1966 - Released 1967  ST 2640)
TTITLE5=Buck Owens And His Buckaroos - No More Me And You (Recorded 1966 - Released 1967  ST 2640)
TTITLE6=Buck Owens And His Buckaroos - Where Does The Good Times Go (1967  ST 2841)
TTITLE7=Buck Owens And His Buckaroos - Open Up Your Heart (1967  ST 2640)
TTITLE8=Buck Owens And His Buckaroos - The Way That I Love You (1967  ST 2841)
TTITLE9=Buck Owens And His Buckaroos - Rocks In My Head (1967  ST 2760)
TTITLE10=Buck Owens And His Buckaroos - Only You And You Alone (1967  ST 2760)
TTITLE11=Buck Owens And His Buckaroos - Don't Ever Tell Me Goodbye (1967  ST 2760)
TTITLE12=Buck Owens And His Buckaroos - What A Liar I Am (1967  ST 2760)
TTITLE13=Buck Owens And His Buckaroos - Your Tender Loving Care (1967  ST 2760)
TTITLE14=Buck Owens And His Buckaroos - Song And Dance (1967  ST 2760)
TTITLE15=Buck Owens And His Buckaroos - If I Had You Back Again (1967  ST 2760)
TTITLE16=Buck Owens And His Buckaroos - The Way That I Love You (Instrumental) (1967  ST 2722)
TTITLE17=The Buckaroos - I'll Be Swingin' Too (vocals - Don Rich) (1967  ST 2828)
TTITLE18=The Buckaroos - It Takes A Lot Of Tenderness (It Takes A Lot Of You For Me) (vocals - Don Rich) (1967  ST 2722)
TTITLE19=The Buckaroos - Round Hole Guitar (vocals - Don Rich) (1967  ST 2722)
TTITLE20=The Buckaroos - You'll Never Miss The Water (Till The Well Runs Dry) (vocals - Don Rich and Wayne Wilson) (1967  ST 2722)
TTITLE21=The Buckaroos - Something To Remember You By (vocals - Wayne Wilson) (1967  ST 2722)
TTITLE22=The Buckaroos - The Happy-Go-Lucky Guitar (1967  ST 2722)
TTITLE23=The Buckaroos - Tumwater Breakdown (1967  ST 2722)
TTITLE24=The Buckaroos - The Neosho Waltz (1967  ST 2722)
TTITLE25=The Buckaroos - Steel Guitar Polka (1967  ST 2722)
TTITLE26=Buck Owens And His Buckaroos - Happy Son Of A Gun (vocals - Don Rich) (1967  ST 2722)
TTITLE27=Buck Owens And His Buckaroos - Seven Come Eleven (1967  ST 2722)
TTITLE28=Buck Owens And His Buckaroos - Out Of My Mind (vocals - Don Rich) (1967  ST 2722)
TTITLE29=Buck Owens And His Buckaroos - I'm Gonna Live It Up (1967  ST 2841)
TTITLE30=Buck Owens And His Buckaroos - If I Knew (1967  ST 2841)
TTITLE31=Buck Owens And His Buckaroos - Everybody Needs Somebody (1967  ST 2962)
TTITLE32=Buck Owens And His Buckaroos - I've Got It Bad For You (1967  ST 2841)
TTITLE33=Buck Owens And His Buckaroos - You Left Her Lonely Too Long (1967  ST 2841)
TTITLE34=Buck Owens And His Buckaroos - That's How I Measure My Love For You (1967  ST 2841)
EXTD=
EXTT0=
EXTT1=
EXTT2=
EXTT3=
EXTT4=
EXTT5=
EXTT6=
EXTT7=
EXTT8=
EXTT9=
EXTT10=
EXTT11=
EXTT12=
EXTT13=
EXTT14=
EXTT15=
EXTT16=
EXTT17=
EXTT18=
EXTT19=
EXTT20=
EXTT21=
EXTT22=
EXTT23=
EXTT24=
EXTT25=
EXTT26=
EXTT27=
EXTT28=
EXTT29=
EXTT30=
EXTT31=
EXTT32=
EXTT33=
EXTT34=
PLAYORDER=
